<svg xmlns="http://www.w3.org/2000/svg" viewBox="0 0 403.18 129.58"><defs><style>.cls-1{fill:#fff;}</style></defs><g id="Layer_2" data-name="Layer 2"><g id="Layer_1-2" data-name="Layer 1"><path class="cls-1" d="M37.4,67.47a5.74,5.74,0,0,1,.76-8.85,5.88,5.88,0,0,1,7.4.78l8.18,8a1.76,1.76,0,0,0,3-1.27V0L36.19,41.61A5.63,5.63,0,0,1,32,44.69L5.08,48.59A5.93,5.93,0,0,0,1.8,58.7L39.93,95.83a6,6,0,0,1,.6,8,5.74,5.74,0,0,1-8.39.4L22.61,95a1.77,1.77,0,0,0-3,1l-4.57,26.69a5.92,5.92,0,0,0,8.59,6.24l30.06-15.8a5.62,5.62,0,0,0,3-5V88.67a5.65,5.65,0,0,0-1.7-4Z"/><path class="cls-1" d="M87.55,67.47a5.74,5.74,0,0,0-.76-8.85,5.88,5.88,0,0,0-7.4.78l-8.18,8a1.76,1.76,0,0,1-3-1.27V0L88.75,41.61A5.65,5.65,0,0,0,93,44.69l26.88,3.9a5.93,5.93,0,0,1,3.28,10.11L85,95.83a6,6,0,0,0-.6,8,5.73,5.73,0,0,0,8.38.4L102.34,95a1.76,1.76,0,0,1,3,1l4.58,26.69a5.92,5.92,0,0,1-8.6,6.24l-30-15.8a5.62,5.62,0,0,1-3-5V88.67a5.61,5.61,0,0,1,1.7-4Z"/><path class="cls-1" d="M179.86,67.8a27.47,27.47,0,0,1-11.58-2.2,16.36,16.36,0,0,1-7.21-6.08,16.07,16.07,0,0,1-2.45-8.77h9.88a7.85,7.85,0,0,0,1.13,4,8.06,8.06,0,0,0,3.66,3.16,15.24,15.24,0,0,0,6.57,1.21,15.66,15.66,0,0,0,6.22-1.06,8.61,8.61,0,0,0,3.7-2.81A6.61,6.61,0,0,0,191,51.32,5.13,5.13,0,0,0,188.68,47c-1.57-1.12-4-1.81-7.32-2.1l-4.55-.43q-7.45-.63-11.9-4.65a13.64,13.64,0,0,1-4.44-10.62,15.3,15.3,0,0,1,2.34-8.56A15.31,15.31,0,0,1,169.39,15a26.2,26.2,0,0,1,20.1.11,15.29,15.29,0,0,1,6.61,5.79,16.34,16.34,0,0,1,2.31,8.78h-9.88a8,8,0,0,0-1-3.88,7.5,7.5,0,0,0-3.06-2.94,12.35,12.35,0,0,0-10.12-.11,7.18,7.18,0,0,0-3,2.7,7,7,0,0,0-1,3.66,5.88,5.88,0,0,0,1.78,4.23q1.78,1.8,5.62,2.09l4.47.43a28.22,28.22,0,0,1,9.77,2.34,16.07,16.07,0,0,1,6.5,5.19,13.14,13.14,0,0,1,2.35,7.89A15,15,0,0,1,198.34,60a16.58,16.58,0,0,1-7.28,5.79A27.75,27.75,0,0,1,179.86,67.8Z"/><path class="cls-1" d="M208.07,80.66V27.87h7.82V44.5l-1.21-.08a22.84,22.84,0,0,1,2.45-9.87,14.43,14.43,0,0,1,5.79-5.94A16.85,16.85,0,0,1,231,26.66a17.91,17.91,0,0,1,7.42,1.49,16.74,16.74,0,0,1,5.69,4.19,19.28,19.28,0,0,1,3.65,6.29,22.68,22.68,0,0,1,1.28,7.71v1.49a23.92,23.92,0,0,1-1.24,7.82A18.66,18.66,0,0,1,244.21,62a17,17,0,0,1-5.72,4.22A17.74,17.74,0,0,1,231,67.73a17.29,17.29,0,0,1-7.93-1.81,13.93,13.93,0,0,1-5.79-5.61,21.43,21.43,0,0,1-2.49-9.77L218,55.23V80.66Zm20.47-21.24a9.92,9.92,0,0,0,5.54-1.57,10.2,10.2,0,0,0,3.73-4.37,14.76,14.76,0,0,0,1.31-6.36,14.51,14.51,0,0,0-1.31-6.36,10.25,10.25,0,0,0-3.69-4.26A10.11,10.11,0,0,0,228.54,35a11.15,11.15,0,0,0-5.37,1.32,10.54,10.54,0,0,0-4,3.76A11,11,0,0,0,217.67,46v2.84a10,10,0,0,0,1.56,5.68,10.56,10.56,0,0,0,4.05,3.63A11.38,11.38,0,0,0,228.54,59.42Z"/><path class="cls-1" d="M268,67.45a16.72,16.72,0,0,1-7.32-1.5,11.31,11.31,0,0,1-4.87-4.26A12.31,12.31,0,0,1,254.06,55a11.18,11.18,0,0,1,2.06-7,12.35,12.35,0,0,1,5.9-4,27,27,0,0,1,9-1.35h8.88v6h-9a7.53,7.53,0,0,0-5.22,1.63,5.93,5.93,0,0,0,0,8.53,7.53,7.53,0,0,0,5.22,1.63,9.68,9.68,0,0,0,3.8-.74,6.36,6.36,0,0,0,2.88-2.56,10.16,10.16,0,0,0,1.28-4.94l2.41,2.77a16.24,16.24,0,0,1-1.95,6.82,10.67,10.67,0,0,1-4.4,4.23A14.8,14.8,0,0,1,268,67.45Zm12.43-1V55h-1.63V42.29a6.8,6.8,0,0,0-1.64-4.94,6.68,6.68,0,0,0-5-1.67c-1.19,0-2.61,0-4.26.08s-3.33.1-5,.17-3.19.16-4.52.25V27.8c1.09-.1,2.31-.19,3.66-.29s2.76-.15,4.23-.17,2.84,0,4.12,0a27.2,27.2,0,0,1,9.92,1.56,11.84,11.84,0,0,1,6,4.94,16.91,16.91,0,0,1,2,8.78V66.45Z"/><path class="cls-1" d="M315,67.8a21,21,0,0,1-8.67-1.67,16.93,16.93,0,0,1-6.11-4.55,19.66,19.66,0,0,1-3.62-6.43,22.22,22.22,0,0,1-1.21-7.24V46.56a22.69,22.69,0,0,1,1.24-7.5,19.22,19.22,0,0,1,3.7-6.4,17.7,17.7,0,0,1,6.11-4.47,22.31,22.31,0,0,1,17.59.28,16.3,16.3,0,0,1,6.36,5.44A15.84,15.84,0,0,1,333,42h-9.66a8,8,0,0,0-2.49-4.94,8.32,8.32,0,0,0-6-2,8.92,8.92,0,0,0-5.36,1.56,9.25,9.25,0,0,0-3.24,4.3,17.24,17.24,0,0,0-1.06,6.29,17.57,17.57,0,0,0,1,6.18,9,9,0,0,0,3.19,4.33A9.21,9.21,0,0,0,315,59.27a9.89,9.89,0,0,0,4.48-.92,7.57,7.57,0,0,0,2.95-2.56,8,8,0,0,0,1.31-3.69h9.67a15.87,15.87,0,0,1-2.74,8.21,16.84,16.84,0,0,1-6.47,5.5A20.38,20.38,0,0,1,315,67.8Z"/><path class="cls-1" d="M358.19,67.8a20.81,20.81,0,0,1-8.7-1.7,17.55,17.55,0,0,1-6.18-4.59,20,20,0,0,1-3.7-6.43,21.75,21.75,0,0,1-1.24-7.25V46.49a22.5,22.5,0,0,1,1.24-7.43,19.65,19.65,0,0,1,3.66-6.4,17.3,17.3,0,0,1,6.08-4.47,20.08,20.08,0,0,1,8.42-1.67,19,19,0,0,1,10.48,2.73,17.47,17.47,0,0,1,6.36,7.18A21.83,21.83,0,0,1,376.74,46v3.62H342.56V43.5h27.92l-3,3a16.42,16.42,0,0,0-1.1-6.33,8.87,8.87,0,0,0-3.23-4,9.54,9.54,0,0,0-5.4-1.42,9.73,9.73,0,0,0-5.55,1.53,9.48,9.48,0,0,0-3.44,4.3,17.09,17.09,0,0,0-1.18,6.68,17,17,0,0,0,1.14,6.43,9.49,9.49,0,0,0,3.48,4.4,10.37,10.37,0,0,0,6,1.6A10.57,10.57,0,0,0,364,58.17a6.46,6.46,0,0,0,2.91-3.59h9.17a16.34,16.34,0,0,1-3.27,7,16,16,0,0,1-6.15,4.62A20.94,20.94,0,0,1,358.19,67.8Z"/><path class="cls-1" d="M179.86,129.58a27.47,27.47,0,0,1-11.58-2.21,16.34,16.34,0,0,1-7.21-6.07,16.1,16.1,0,0,1-2.45-8.78h9.88a7.85,7.85,0,0,0,1.13,4,8.17,8.17,0,0,0,3.66,3.16,15.24,15.24,0,0,0,6.57,1.21,15.65,15.65,0,0,0,6.22-1.07,8.54,8.54,0,0,0,3.7-2.81,6.59,6.59,0,0,0,1.24-3.94,5.15,5.15,0,0,0-2.34-4.37q-2.35-1.66-7.32-2.09l-4.55-.43q-7.45-.65-11.9-4.66a13.61,13.61,0,0,1-4.44-10.62,14.69,14.69,0,0,1,8.92-14.1,26.13,26.13,0,0,1,20.1.1,15.37,15.37,0,0,1,6.61,5.8,16.3,16.3,0,0,1,2.31,8.77h-9.88a8,8,0,0,0-1-3.87,7.52,7.52,0,0,0-3.06-3,12.35,12.35,0,0,0-10.12-.11,7.25,7.25,0,0,0-3,2.7,7.09,7.09,0,0,0-1,3.66,5.88,5.88,0,0,0,1.78,4.23q1.78,1.81,5.62,2.1l4.47.42a28.44,28.44,0,0,1,9.77,2.35,16.13,16.13,0,0,1,6.5,5.18,13.14,13.14,0,0,1,2.35,7.89,14.91,14.91,0,0,1-2.56,8.63,16.67,16.67,0,0,1-7.28,5.8A27.92,27.92,0,0,1,179.86,129.58Z"/><path class="cls-1" d="M225.85,129.58a20.73,20.73,0,0,1-8.71-1.71,17.53,17.53,0,0,1-6.18-4.58,20,20,0,0,1-3.7-6.43,21.8,21.8,0,0,1-1.24-7.25v-1.35a22.54,22.54,0,0,1,1.24-7.43,19.5,19.5,0,0,1,3.66-6.39A17.54,17.54,0,0,1,217,90a20.15,20.15,0,0,1,8.42-1.67A18.94,18.94,0,0,1,235.9,91a17.28,17.28,0,0,1,6.36,7.18,21.78,21.78,0,0,1,2.13,9.55v3.63H210.21v-6.12h27.93l-3,3a16.21,16.21,0,0,0-1.1-6.32,8.7,8.7,0,0,0-3.23-4,9.51,9.51,0,0,0-5.4-1.42A9.67,9.67,0,0,0,219.88,98a9.44,9.44,0,0,0-3.45,4.3,17.17,17.17,0,0,0-1.17,6.68,17,17,0,0,0,1.14,6.43,9.44,9.44,0,0,0,3.48,4.41,10.4,10.4,0,0,0,6,1.59,10.62,10.62,0,0,0,5.82-1.45,6.45,6.45,0,0,0,2.91-3.59h9.17a16.36,16.36,0,0,1-3.27,7,16.07,16.07,0,0,1-6.14,4.62A21,21,0,0,1,225.85,129.58Z"/><path class="cls-1" d="M269.67,129.58a20.73,20.73,0,0,1-8.71-1.71,17.53,17.53,0,0,1-6.18-4.58,20,20,0,0,1-3.7-6.43,21.8,21.8,0,0,1-1.24-7.25v-1.35a22.54,22.54,0,0,1,1.24-7.43,19.5,19.5,0,0,1,3.66-6.39A17.54,17.54,0,0,1,260.82,90a20.15,20.15,0,0,1,8.42-1.67A18.94,18.94,0,0,1,279.72,91a17.28,17.28,0,0,1,6.36,7.18,21.78,21.78,0,0,1,2.13,9.55v3.63H254v-6.12H282l-3,3a16.21,16.21,0,0,0-1.1-6.32,8.7,8.7,0,0,0-3.23-4,9.51,9.51,0,0,0-5.4-1.42A9.67,9.67,0,0,0,263.7,98a9.44,9.44,0,0,0-3.45,4.3,17.17,17.17,0,0,0-1.17,6.68,17,17,0,0,0,1.14,6.43,9.44,9.44,0,0,0,3.48,4.41,10.4,10.4,0,0,0,6,1.59,10.64,10.64,0,0,0,5.82-1.45,6.45,6.45,0,0,0,2.91-3.59h9.17a16.36,16.36,0,0,1-3.27,7,16.07,16.07,0,0,1-6.14,4.62A21,21,0,0,1,269.67,129.58Z"/><path class="cls-1" d="M295.69,128.23V76.36h9.88v51.87Zm27,0-12.93-18H304l16.41-20.54h10.3l-15.13,19,.21-5,18.05,24.59Z"/><path class="cls-1" d="M354.13,129.58a20.73,20.73,0,0,1-8.71-1.71,17.71,17.71,0,0,1-6.18-4.58,20,20,0,0,1-3.69-6.43,21.81,21.81,0,0,1-1.25-7.25v-1.35a22.55,22.55,0,0,1,1.25-7.43,19.33,19.33,0,0,1,3.66-6.39A17.5,17.5,0,0,1,345.28,90a20.15,20.15,0,0,1,8.42-1.67A18.94,18.94,0,0,1,364.18,91a17.28,17.28,0,0,1,6.36,7.18,21.78,21.78,0,0,1,2.13,9.55v3.63H338.5v-6.12h27.92l-3,3a16.2,16.2,0,0,0-1.11-6.32,8.7,8.7,0,0,0-3.23-4,9.51,9.51,0,0,0-5.4-1.42A9.67,9.67,0,0,0,348.16,98a9.44,9.44,0,0,0-3.45,4.3,17.17,17.17,0,0,0-1.17,6.68,17,17,0,0,0,1.14,6.43,9.51,9.51,0,0,0,3.48,4.41,10.4,10.4,0,0,0,6,1.59A10.59,10.59,0,0,0,360,120a6.51,6.51,0,0,0,2.92-3.59H372a16.34,16.34,0,0,1-3.26,7,16.11,16.11,0,0,1-6.15,4.62A21,21,0,0,1,354.13,129.58Z"/><path class="cls-1" d="M380.16,128.23V89.64H388V106h-.21q0-8.25,3.55-12.54t10.45-4.31h1.42v8.6h-2.7q-5,0-7.71,2.7c-1.83,1.8-2.74,4.39-2.74,7.75v20Z"/></g></g></svg>